<svg id="iconfinder_291716_github_logo_social_network_social_icon" data-name="iconfinder_291716_github_logo_social network_social_icon" xmlns="http://www.w3.org/2000/svg" width="58.407" height="58.407" viewBox="0 0 58.407 58.407">
  <path id="Path_1" data-name="Path 1" d="M33.782,40.4c5.691-.672,11.743-2.741,11.743-12.57A9.868,9.868,0,0,0,42.939,21a9.224,9.224,0,0,0-.312-6.724s-2.069-.673-6.931,2.586a25.064,25.064,0,0,0-6.466-.931,24.444,24.444,0,0,0-6.468.931c-4.915-3.259-6.984-2.586-6.984-2.586A9.226,9.226,0,0,0,15.468,21a9.86,9.86,0,0,0-2.587,6.83c0,9.829,6.053,11.9,11.743,12.57a5.737,5.737,0,0,0-1.655,3.466c-1.449.62-5.226,1.811-7.5-2.121a5.273,5.273,0,0,0-3.88-2.586s-2.535-.052-.207,1.551c0,0,1.707.777,2.845,3.725,0,0,1.551,4.915,8.69,3.363v4.4c0,.674-.517,1.449-1.81,1.242a25.53,25.53,0,1,1,16.193,0c-1.294.258-1.811-.517-1.811-1.242V45.111c0-2.381-.777-3.932-1.707-4.709ZM58.407,29.23A29.2,29.2,0,1,0,29.23,58.407,29.221,29.221,0,0,0,58.407,29.23Z" fill="#fff" fill-rule="evenodd"/>
</svg>
